<svg width="128" height="128" xmlns="http://www.w3.org/2000/svg" xmlns:svg="http://www.w3.org/2000/svg" xmlns:xlink="http://www.w3.org/1999/xlink">
 <g>
  <title>Layer 1</title>
  <g id="Layer_1">
   <rect id="svg_1" y="-921" x="-379.984" width="727.938" opacity="0" height="1520" fill="#F4F5F5"/>
  </g>
  <g id="Layer_2">
   <g id="svg_2">
    <circle id="svg_3" r="64" fill="#56619A" cy="64" cx="64"/>
    <g id="svg_4">
     <defs>
      <circle r="64" id="SVGID_81_" cy="64" cx="64"/>
     </defs>
     <clipPath id="SVGID_2_">
      <use id="svg_5" xlink:href="#SVGID_81_"/>
     </clipPath>
     <polygon id="svg_6" points="33.469,107.674 53.959,128 128,128 128,57.5 94.504,24.296      33.865,31.97 41.5,39.583 41.5,103.22    " fill="#454D88" clip-path="url(#SVGID_2_)"/>
    </g>
    <g id="svg_7">
     <path id="svg_8" fill="#FFFFFF" d="m67.514,68.031c-0.588,-0.679 -0.918,-1.6 -0.918,-2.561s0.33,-1.882 0.918,-2.561l12.867,-14.868c3.918,-4.528 6.119,-10.668 6.119,-17.071l-45,0c0,6.403 2.201,12.544 6.119,17.071l12.867,14.868c0.588,0.679 0.918,1.6 0.918,2.561s-0.33,1.882 -0.918,2.561l-12.867,14.868c-3.918,4.527 -6.119,10.668 -6.119,17.071l45,0c0,-6.403 -2.201,-12.544 -6.119,-17.071l-12.867,-14.868z"/>
    </g>
    <g id="svg_9">
     <path id="svg_10" fill="#E0E8E9" d="m43.579,99.97c0.407,-5.168 2.381,-12.097 5.553,-15.762l12.867,-14.868c0.906,-1.048 1.404,-2.422 1.404,-3.87c0,-1.447 -0.498,-2.821 -1.403,-3.868l-12.868,-14.87c-3.172,-3.665 -5.146,-8.595 -5.553,-15.107l40.842,0c-0.407,6.513 -2.381,11.442 -5.553,15.107l-12.867,14.869c-0.906,1.049 -1.405,2.423 -1.405,3.869s0.499,2.82 1.404,3.869l12.868,14.869c3.172,3.665 5.146,10.594 5.553,15.762l-40.842,0z"/>
    </g>
    <path id="svg_11" fill="#E1DBCA" d="m92.643,23.482l-57.286,0c-1.412,0 -2.557,1.145 -2.557,2.557l0,3.862c0,1.412 1.145,2.557 2.557,2.557l57.286,0c1.412,0 2.557,-1.145 2.557,-2.557l0,-3.862c0,-1.412 -1.145,-2.557 -2.557,-2.557z"/>
    <rect id="svg_12" y="31.97" x="40.5" width="2" height="68" fill="#E1DBCA"/>
    <rect id="svg_13" y="31.97" x="85.5" width="2" height="68" fill="#E1DBCA"/>
    <g id="svg_14">
     <path id="svg_15" fill="#FAA819" d="m83.321,94.309l-0.001,-0.001c-2.663,-7.15 -17.903,-6.62 -17.903,-6.62c-0.907,-1.047 -0.82,-20.77 -0.82,-22.218s0.499,-2.822 1.405,-3.869l8.539,-9.868c0.613,-0.709 0.009,-1.798 -0.915,-1.641c-2.122,0.361 -5.376,0.747 -9.626,0.752c-4.249,-0.006 -7.504,-0.391 -9.626,-0.752c-0.924,-0.157 -1.529,0.932 -0.915,1.641l8.539,9.868c0.906,1.047 1.405,2.421 1.405,3.869s0.087,21.091 -0.82,22.138c0,0 -15.24,-0.451 -17.903,6.699l-0.001,0.001c-0.574,1.817 -0.948,3.723 -1.1,5.661l40.842,0c-0.153,-1.938 -0.526,-3.843 -1.1,-5.66z"/>
    </g>
    <g id="svg_16">
     <path id="svg_17" fill="#8B4E14" d="m38.958,30.083l0,0c-0.435,0 -0.792,-0.356 -0.792,-0.792l0,-2.75c0,-0.435 0.356,-0.792 0.792,-0.792l0,0c0.435,0 0.792,0.356 0.792,0.792l0,2.75c0,0.436 -0.356,0.792 -0.792,0.792z"/>
     <path id="svg_18" fill="#8B4E14" d="m42.292,30.083l0,0c-0.435,0 -0.792,-0.356 -0.792,-0.792l0,-2.75c0,-0.435 0.356,-0.792 0.792,-0.792l0,0c0.435,0 0.792,0.356 0.792,0.792l0,2.75c-0.001,0.436 -0.357,0.792 -0.792,0.792z"/>
     <path id="svg_19" fill="#8B4E14" d="m45.625,30.083l0,0c-0.435,0 -0.792,-0.356 -0.792,-0.792l0,-2.75c0,-0.435 0.356,-0.792 0.792,-0.792l0,0c0.435,0 0.792,0.356 0.792,0.792l0,2.75c0,0.436 -0.357,0.792 -0.792,0.792z"/>
     <path id="svg_20" fill="#8B4E14" d="m48.958,30.083l0,0c-0.435,0 -0.792,-0.356 -0.792,-0.792l0,-2.75c0,-0.435 0.356,-0.792 0.792,-0.792l0,0c0.435,0 0.792,0.356 0.792,0.792l0,2.75c0,0.436 -0.356,0.792 -0.792,0.792z"/>
     <path id="svg_21" fill="#8B4E14" d="m52.291,30.083l0,0c-0.435,0 -0.792,-0.356 -0.792,-0.792l0,-2.75c0,-0.435 0.356,-0.792 0.792,-0.792l0,0c0.435,0 0.792,0.356 0.792,0.792l0,2.75c0,0.436 -0.356,0.792 -0.792,0.792z"/>
     <path id="svg_22" fill="#8B4E14" d="m55.625,30.083l0,0c-0.435,0 -0.792,-0.356 -0.792,-0.792l0,-2.75c0,-0.435 0.356,-0.792 0.792,-0.792l0,0c0.435,0 0.792,0.356 0.792,0.792l0,2.75c-0.001,0.436 -0.357,0.792 -0.792,0.792z"/>
     <path id="svg_23" fill="#8B4E14" d="m58.958,30.083l0,0c-0.435,0 -0.792,-0.356 -0.792,-0.792l0,-2.75c0,-0.435 0.356,-0.792 0.792,-0.792l0,0c0.435,0 0.792,0.356 0.792,0.792l0,2.75c0,0.436 -0.357,0.792 -0.792,0.792z"/>
     <path id="svg_24" fill="#8B4E14" d="m62.291,30.083l0,0c-0.435,0 -0.792,-0.356 -0.792,-0.792l0,-2.75c0,-0.435 0.356,-0.792 0.792,-0.792l0,0c0.435,0 0.792,0.356 0.792,0.792l0,2.75c0,0.436 -0.356,0.792 -0.792,0.792z"/>
     <path id="svg_25" fill="#8B4E14" d="m65.625,30.083l0,0c-0.435,0 -0.792,-0.356 -0.792,-0.792l0,-2.75c0,-0.435 0.356,-0.792 0.792,-0.792l0,0c0.435,0 0.792,0.356 0.792,0.792l0,2.75c-0.001,0.436 -0.357,0.792 -0.792,0.792z"/>
     <path id="svg_26" fill="#8B4E14" d="m68.958,30.083l0,0c-0.435,0 -0.792,-0.356 -0.792,-0.792l0,-2.75c0,-0.435 0.356,-0.792 0.792,-0.792l0,0c0.435,0 0.792,0.356 0.792,0.792l0,2.75c0,0.436 -0.357,0.792 -0.792,0.792z"/>
     <path id="svg_27" fill="#8B4E14" d="m72.291,30.083l0,0c-0.435,0 -0.792,-0.356 -0.792,-0.792l0,-2.75c0,-0.435 0.356,-0.792 0.792,-0.792l0,0c0.435,0 0.792,0.356 0.792,0.792l0,2.75c0,0.436 -0.356,0.792 -0.792,0.792z"/>
     <path id="svg_28" fill="#8B4E14" d="m75.624,30.083l0,0c-0.435,0 -0.792,-0.356 -0.792,-0.792l0,-2.75c0,-0.435 0.356,-0.792 0.792,-0.792l0,0c0.435,0 0.792,0.356 0.792,0.792l0,2.75c0,0.436 -0.356,0.792 -0.792,0.792z"/>
     <path id="svg_29" fill="#8B4E14" d="m78.958,30.083l0,0c-0.435,0 -0.792,-0.356 -0.792,-0.792l0,-2.75c0,-0.435 0.356,-0.792 0.792,-0.792l0,0c0.435,0 0.792,0.356 0.792,0.792l0,2.75c-0.001,0.436 -0.357,0.792 -0.792,0.792z"/>
     <path id="svg_30" fill="#8B4E14" d="m82.291,30.083l0,0c-0.435,0 -0.792,-0.356 -0.792,-0.792l0,-2.75c0,-0.435 0.356,-0.792 0.792,-0.792l0,0c0.435,0 0.792,0.356 0.792,0.792l0,2.75c0,0.436 -0.357,0.792 -0.792,0.792z"/>
     <path id="svg_31" fill="#8B4E14" d="m85.624,30.083l0,0c-0.435,0 -0.792,-0.356 -0.792,-0.792l0,-2.75c0,-0.435 0.356,-0.792 0.792,-0.792l0,0c0.435,0 0.792,0.356 0.792,0.792l0,2.75c0,0.436 -0.356,0.792 -0.792,0.792z"/>
     <path id="svg_32" fill="#8B4E14" d="m88.958,30.083l0,0c-0.435,0 -0.792,-0.356 -0.792,-0.792l0,-2.75c0,-0.435 0.356,-0.792 0.792,-0.792l0,0c0.435,0 0.792,0.356 0.792,0.792l0,2.75c-0.001,0.436 -0.357,0.792 -0.792,0.792z"/>
    </g>
    <path id="svg_33" fill="#E1DBCA" d="m92.684,99.475l-57.368,0c-1.414,0 -2.561,1.146 -2.561,2.561l0,3.868c0,1.414 1.146,2.561 2.561,2.561l57.368,0c1.414,0 2.561,-1.146 2.561,-2.561l0,-3.868c0,-1.414 -1.147,-2.561 -2.561,-2.561z"/>
    <g id="svg_34">
     <path id="svg_35" fill="#8B4E14" d="m38.958,106.137l0,0c-0.435,0 -0.792,-0.356 -0.792,-0.792l0,-2.75c0,-0.435 0.356,-0.792 0.792,-0.792l0,0c0.435,0 0.792,0.356 0.792,0.792l0,2.75c0,0.435 -0.356,0.792 -0.792,0.792z"/>
     <path id="svg_36" fill="#8B4E14" d="m42.292,106.137l0,0c-0.435,0 -0.792,-0.356 -0.792,-0.792l0,-2.75c0,-0.435 0.356,-0.792 0.792,-0.792l0,0c0.435,0 0.792,0.356 0.792,0.792l0,2.75c-0.001,0.435 -0.357,0.792 -0.792,0.792z"/>
     <path id="svg_37" fill="#8B4E14" d="m45.625,106.137l0,0c-0.435,0 -0.792,-0.356 -0.792,-0.792l0,-2.75c0,-0.435 0.356,-0.792 0.792,-0.792l0,0c0.435,0 0.792,0.356 0.792,0.792l0,2.75c0,0.435 -0.357,0.792 -0.792,0.792z"/>
     <path id="svg_38" fill="#8B4E14" d="m48.958,106.137l0,0c-0.435,0 -0.792,-0.356 -0.792,-0.792l0,-2.75c0,-0.435 0.356,-0.792 0.792,-0.792l0,0c0.435,0 0.792,0.356 0.792,0.792l0,2.75c0,0.435 -0.356,0.792 -0.792,0.792z"/>
     <path id="svg_39" fill="#8B4E14" d="m52.291,106.137l0,0c-0.435,0 -0.792,-0.356 -0.792,-0.792l0,-2.75c0,-0.435 0.356,-0.792 0.792,-0.792l0,0c0.435,0 0.792,0.356 0.792,0.792l0,2.75c0,0.435 -0.356,0.792 -0.792,0.792z"/>
     <path id="svg_40" fill="#8B4E14" d="m55.625,106.137l0,0c-0.435,0 -0.792,-0.356 -0.792,-0.792l0,-2.75c0,-0.435 0.356,-0.792 0.792,-0.792l0,0c0.435,0 0.792,0.356 0.792,0.792l0,2.75c-0.001,0.435 -0.357,0.792 -0.792,0.792z"/>
     <path id="svg_41" fill="#8B4E14" d="m58.958,106.137l0,0c-0.435,0 -0.792,-0.356 -0.792,-0.792l0,-2.75c0,-0.435 0.356,-0.792 0.792,-0.792l0,0c0.435,0 0.792,0.356 0.792,0.792l0,2.75c0,0.435 -0.357,0.792 -0.792,0.792z"/>
     <path id="svg_42" fill="#8B4E14" d="m62.291,106.137l0,0c-0.435,0 -0.792,-0.356 -0.792,-0.792l0,-2.75c0,-0.435 0.356,-0.792 0.792,-0.792l0,0c0.435,0 0.792,0.356 0.792,0.792l0,2.75c0,0.435 -0.356,0.792 -0.792,0.792z"/>
     <path id="svg_43" fill="#8B4E14" d="m65.625,106.137l0,0c-0.435,0 -0.792,-0.356 -0.792,-0.792l0,-2.75c0,-0.435 0.356,-0.792 0.792,-0.792l0,0c0.435,0 0.792,0.356 0.792,0.792l0,2.75c-0.001,0.435 -0.357,0.792 -0.792,0.792z"/>
     <path id="svg_44" fill="#8B4E14" d="m68.958,106.137l0,0c-0.435,0 -0.792,-0.356 -0.792,-0.792l0,-2.75c0,-0.435 0.356,-0.792 0.792,-0.792l0,0c0.435,0 0.792,0.356 0.792,0.792l0,2.75c0,0.435 -0.357,0.792 -0.792,0.792z"/>
     <path id="svg_45" fill="#8B4E14" d="m72.291,106.137l0,0c-0.435,0 -0.792,-0.356 -0.792,-0.792l0,-2.75c0,-0.435 0.356,-0.792 0.792,-0.792l0,0c0.435,0 0.792,0.356 0.792,0.792l0,2.75c0,0.435 -0.356,0.792 -0.792,0.792z"/>
     <path id="svg_46" fill="#8B4E14" d="m75.624,106.137l0,0c-0.435,0 -0.792,-0.356 -0.792,-0.792l0,-2.75c0,-0.435 0.356,-0.792 0.792,-0.792l0,0c0.435,0 0.792,0.356 0.792,0.792l0,2.75c0,0.435 -0.356,0.792 -0.792,0.792z"/>
     <path id="svg_47" fill="#8B4E14" d="m78.958,106.137l0,0c-0.435,0 -0.792,-0.356 -0.792,-0.792l0,-2.75c0,-0.435 0.356,-0.792 0.792,-0.792l0,0c0.435,0 0.792,0.356 0.792,0.792l0,2.75c-0.001,0.435 -0.357,0.792 -0.792,0.792z"/>
     <path id="svg_48" fill="#8B4E14" d="m82.291,106.137l0,0c-0.435,0 -0.792,-0.356 -0.792,-0.792l0,-2.75c0,-0.435 0.356,-0.792 0.792,-0.792l0,0c0.435,0 0.792,0.356 0.792,0.792l0,2.75c0,0.435 -0.357,0.792 -0.792,0.792z"/>
     <path id="svg_49" fill="#8B4E14" d="m85.624,106.137l0,0c-0.435,0 -0.792,-0.356 -0.792,-0.792l0,-2.75c0,-0.435 0.356,-0.792 0.792,-0.792l0,0c0.435,0 0.792,0.356 0.792,0.792l0,2.75c0,0.435 -0.356,0.792 -0.792,0.792z"/>
     <path id="svg_50" fill="#8B4E14" d="m88.958,106.137l0,0c-0.435,0 -0.792,-0.356 -0.792,-0.792l0,-2.75c0,-0.435 0.356,-0.792 0.792,-0.792l0,0c0.435,0 0.792,0.356 0.792,0.792l0,2.75c-0.001,0.435 -0.357,0.792 -0.792,0.792z"/>
    </g>
    <circle id="svg_51" r="4.125" fill="#E1DBCA" cy="65.47" cx="41.5"/>
    <circle id="svg_52" r="4.125" fill="#E1DBCA" cy="65.47" cx="86.5"/>
   </g>
  </g>
 </g>
</svg>
