<?xml version="1.0" standalone="no"?>
<!DOCTYPE svg PUBLIC "-//W3C//DTD SVG 20010904//EN"
 "http://www.w3.org/TR/2001/REC-SVG-20010904/DTD/svg10.dtd">
<svg version="1.0" xmlns="http://www.w3.org/2000/svg"
 width="640.000000pt" height="640.000000pt" viewBox="0 0 640.000000 640.000000"
 preserveAspectRatio="xMidYMid meet">
<metadata>
Created by potrace 1.11, written by Peter Selinger 2001-2013
</metadata>
<g transform="translate(0.000000,640.000000) scale(0.100000,-0.100000)"
fill="#000000" stroke="none">
<path d="M3148 6166 c-1 -2 -61 -6 -133 -9 -516 -24 -1026 -189 -1464 -474
-194 -126 -306 -219 -486 -398 -323 -323 -554 -693 -705 -1132 -39 -111 -101
-352 -115 -443 -4 -25 -11 -72 -16 -105 -33 -214 -32 -600 1 -820 6 -38 13
-84 15 -102 9 -63 66 -286 102 -396 109 -339 284 -663 512 -947 103 -129 323
-348 451 -449 281 -223 627 -410 948 -512 39 -13 72 -27 72 -32 0 -4 4 -6 9
-3 11 7 114 -18 107 -25 -3 -3 7 -4 22 -4 15 1 32 -3 39 -8 7 -5 16 -6 21 -3
5 3 21 -3 35 -14 14 -12 28 -16 32 -11 3 5 15 8 27 6 12 -3 40 -7 63 -11 22
-3 43 -10 46 -16 4 -6 9 -5 13 3 3 8 5 5 2 -7 -2 -12 2 -21 9 -21 7 0 11 6 9
12 -6 15 27 16 45 1 11 -8 13 -8 7 2 -4 6 -2 12 3 12 6 0 11 -8 11 -17 0 -11
3 -14 8 -7 8 12 100 13 120 1 7 -5 12 -3 12 5 0 9 3 9 8 2 4 -6 32 -10 64 -9
31 0 54 -3 52 -7 -3 -4 -1 -8 5 -8 6 0 8 -8 5 -17 -5 -14 -4 -15 4 -4 8 11 12
10 22 -8 11 -21 13 -21 36 -6 13 8 24 13 24 9 0 -4 6 -1 14 5 11 10 17 8 26
-6 10 -16 11 -16 6 0 -7 22 1 22 22 -1 10 -9 14 -13 10 -8 -13 16 -9 22 12 22
14 0 19 -5 15 -16 -5 -11 -3 -12 5 -3 9 8 9 16 1 30 -6 10 -11 13 -11 7 0 -6
-23 -10 -54 -10 -30 1 -52 4 -49 9 2 4 -1 7 -6 7 -6 0 -11 -4 -11 -9 0 -11
-19 -9 -39 3 -10 7 -12 6 -6 -4 5 -9 4 -11 -3 -6 -27 17 -6 22 86 20 53 0 103
4 110 9 8 6 12 6 12 0 0 -6 10 -9 23 -8 12 1 22 4 22 5 0 1 19 3 42 4 23 1 39
-2 37 -6 -3 -5 -1 -8 5 -8 5 0 12 8 14 18 4 16 5 16 6 -1 0 -10 6 -15 11 -12
6 4 8 10 5 14 -2 5 10 7 28 6 18 -1 37 1 42 4 6 3 24 6 40 6 17 0 35 3 40 6 6
3 19 5 30 5 11 -1 23 4 27 9 5 6 8 4 8 -5 0 -13 1 -13 10 0 9 13 10 13 10 0 0
-13 2 -13 10 0 5 8 21 16 37 17 15 2 34 4 41 5 6 1 12 5 12 10 0 5 11 6 24 4
13 -2 27 -2 30 2 4 3 13 7 21 9 28 6 50 11 50 13 0 1 17 6 48 13 6 1 18 7 26
11 10 6 12 5 7 -2 -4 -7 -2 -12 3 -12 6 0 11 4 11 9 0 10 39 27 53 23 4 -1 7
2 7 7 0 5 8 8 18 6 9 -1 23 2 30 8 8 6 12 6 12 -1 0 -6 -6 -13 -12 -15 -8 -4
-9 -6 -2 -6 7 -1 19 11 29 25 9 14 19 23 23 20 3 -3 16 1 29 9 13 9 23 13 23
9 0 -4 7 -1 15 6 8 7 15 9 15 5 0 -4 6 -2 14 4 10 8 16 9 21 1 3 -5 11 -10 17
-10 6 0 5 7 -3 17 -10 11 -10 14 -1 9 7 -4 12 -2 12 4 0 7 7 10 15 6 8 -3 15
-1 15 3 0 7 47 29 70 32 3 1 19 11 35 23 17 11 33 21 37 21 3 0 9 3 13 7 4 4
14 4 23 1 11 -5 13 -3 7 8 -7 11 -5 11 10 -1 17 -14 18 -13 11 5 -4 11 -4 16
0 12 4 -3 15 3 25 15 11 11 19 16 19 10 0 -7 4 -12 10 -12 5 0 9 3 7 8 -1 4 2
8 6 9 5 0 22 14 38 29 16 15 29 24 29 18 0 -5 5 -2 10 6 5 8 10 10 10 4 0 -6
7 -11 15 -11 8 0 15 4 15 9 0 4 -5 8 -12 8 -6 0 6 13 27 29 22 16 46 26 54 23
10 -4 12 -1 6 9 -4 8 -5 11 0 7 4 -4 19 4 32 18 12 14 28 22 33 19 6 -3 10 1
10 10 0 10 7 15 17 13 10 -2 18 3 19 10 1 6 2 15 3 18 0 4 9 0 18 -7 15 -12
16 -12 10 3 -3 9 1 22 9 28 8 7 14 9 14 5 0 -4 9 4 21 18 11 15 23 26 27 24 4
-1 8 1 9 6 4 12 75 72 87 72 6 1 10 6 9 13 -2 7 3 11 10 9 6 -1 11 5 9 13 -2
8 -1 12 3 8 3 -3 25 14 47 38 22 24 45 41 51 37 6 -4 8 0 4 10 -4 10 -2 16 6
14 7 -1 11 4 9 11 -1 8 2 11 8 7 5 -3 10 -2 10 3 0 6 21 31 48 58 26 27 46 52
44 57 -1 5 2 6 8 2 5 -3 10 -2 10 3 0 5 9 20 21 33 11 13 29 34 39 46 10 12
16 24 12 28 -4 3 2 3 12 -1 14 -5 17 -4 11 5 -4 8 -2 17 6 22 8 4 14 12 14 17
0 4 15 26 32 49 18 22 29 43 25 47 -4 4 0 6 8 4 8 -2 14 2 15 9 0 7 9 23 20
35 10 13 18 25 18 28 -1 3 9 19 22 36 13 17 21 35 17 38 -3 4 1 4 11 0 13 -5
16 -2 11 10 -3 9 -1 16 5 16 6 0 8 7 5 15 -4 8 -1 15 6 15 6 0 8 4 5 10 -3 5
0 7 9 4 11 -4 14 0 11 15 -3 15 0 18 13 14 14 -6 15 -4 4 9 -10 13 -10 19 2
31 8 8 12 18 8 22 -4 5 -1 4 7 0 11 -6 13 -4 8 8 -3 8 1 21 8 27 8 7 14 15 13
18 -3 17 30 74 36 63 4 -6 5 -11 1 -11 -3 0 -1 -9 5 -19 7 -14 7 -22 0 -26 -6
-4 -7 -11 -4 -17 4 -6 2 -8 -4 -4 -7 4 -9 -3 -6 -21 3 -21 2 -24 -6 -13 -7 10
-10 11 -11 3 -4 -34 -6 -38 -18 -35 -8 1 -10 -2 -5 -10 5 -8 1 -7 -11 2 -17
13 -18 13 -10 0 16 -25 15 -44 -3 -64 -11 -12 -12 -16 -3 -11 9 5 12 4 8 -3
-4 -5 -19 -9 -34 -7 -25 3 -26 2 -8 -11 14 -10 15 -14 4 -14 -12 0 -12 -2 1
-10 8 -5 10 -10 4 -10 -5 0 -16 6 -23 12 -11 11 -12 10 -5 -2 14 -24 15 -45 1
-31 -6 6 -15 11 -21 11 -5 0 -1 -7 10 -16 10 -8 13 -12 5 -8 -10 5 -12 3 -7
-7 4 -8 1 -6 -7 4 -12 14 -16 15 -20 4 -3 -8 0 -20 6 -26 9 -10 7 -17 -12 -32
-13 -10 -17 -19 -10 -19 7 0 9 -3 6 -6 -4 -4 -13 -1 -21 5 -13 11 -15 9 -11
-8 2 -12 0 -19 -5 -16 -5 3 -7 -4 -5 -15 2 -11 0 -18 -5 -15 -4 3 -7 -3 -5
-12 1 -10 -5 -27 -14 -38 -15 -19 -15 -19 4 -5 18 14 19 13 8 -1 -7 -9 -10
-18 -7 -22 3 -3 -6 -4 -20 -3 -15 2 -23 -1 -19 -7 3 -6 1 -7 -5 -3 -7 4 -10
-1 -7 -13 4 -20 -9 -22 -35 -6 -12 7 -13 6 -3 -7 7 -8 9 -19 5 -23 -4 -5 -1
-5 7 0 9 5 12 4 8 -3 -4 -5 -19 -9 -34 -7 l-26 3 24 -18 c23 -18 23 -19 5 -39
-11 -12 -16 -24 -12 -28 3 -4 12 -1 19 7 9 10 9 11 0 6 -19 -10 -16 -1 4 15
14 12 16 12 8 0 -6 -10 -4 -12 6 -6 8 5 11 5 7 0 -4 -4 -2 -15 5 -24 10 -14
10 -14 -4 -4 -12 10 -18 10 -27 1 -9 -9 -15 -9 -24 0 -9 9 -8 16 5 30 20 21
22 32 6 32 -5 0 -8 -4 -4 -9 7 -13 -14 -25 -44 -26 -13 0 -26 -7 -28 -15 -4
-12 -3 -12 5 -1 7 9 12 10 16 2 4 -6 2 -11 -4 -11 -6 0 -8 -5 -4 -12 4 -7 3
-8 -4 -4 -8 5 -10 1 -5 -10 5 -14 3 -16 -11 -11 -12 5 -15 3 -10 -6 5 -7 0 -6
-12 3 -18 14 -18 14 -4 -4 9 -12 10 -17 3 -12 -9 5 -11 2 -7 -11 6 -16 4 -15
-10 2 -17 20 -17 20 -7 -2 8 -15 8 -24 1 -28 -6 -4 -7 -12 -4 -18 5 -8 3 -8
-7 0 -17 17 -30 17 -28 1 1 -7 -1 -21 -6 -31 -6 -15 -10 -16 -17 -5 -7 10 -8
8 -4 -5 3 -11 2 -16 -4 -12 -6 4 -9 1 -8 -7 2 -7 -3 -12 -10 -10 -8 1 -11 -2
-6 -9 5 -8 3 -9 -6 -4 -9 6 -11 4 -5 -5 6 -9 4 -11 -6 -5 -8 5 -11 4 -6 0 8
-9 -21 -45 -36 -45 -6 0 -3 6 7 13 16 12 16 14 2 14 -9 0 -17 -4 -17 -9 -1 -4
-3 -12 -4 -18 -1 -5 -3 -14 -4 -19 0 -5 -9 -8 -18 -7 -10 0 -17 -5 -15 -12 1
-8 -2 -11 -9 -6 -8 5 -9 3 -4 -6 6 -9 4 -11 -5 -5 -9 6 -11 4 -5 -5 6 -9 4
-11 -5 -5 -9 6 -11 4 -5 -5 6 -9 4 -11 -5 -5 -9 6 -11 4 -5 -5 6 -9 4 -11 -5
-5 -8 5 -11 4 -6 -3 4 -7 -2 -9 -19 -6 -29 5 -31 -2 -7 -29 12 -15 13 -18 2
-12 -13 8 -13 7 0 -11 14 -19 14 -19 -8 0 -27 23 -42 13 -18 -12 17 -20 12
-57 -6 -46 -6 4 -5 10 3 15 11 7 10 12 -5 26 -19 17 -19 17 -5 -2 12 -18 12
-19 -2 -8 -12 10 -18 10 -29 0 -10 -10 -11 -9 -5 2 5 9 -2 7 -17 -5 -14 -10
-24 -22 -22 -26 2 -4 0 -9 -6 -13 -6 -4 -8 -10 -5 -15 3 -4 -7 -7 -22 -5 -26
3 -26 2 -8 -11 19 -14 19 -14 -2 -11 -11 1 -29 9 -39 17 -16 13 -17 13 -9 0
21 -35 10 -46 -25 -26 -8 5 -2 -5 13 -21 16 -17 24 -34 19 -37 -5 -3 -16 2
-23 11 -12 14 -12 16 1 8 13 -8 13 -7 1 8 -7 9 -15 17 -16 17 -7 0 2 -29 14
-43 10 -13 9 -21 -4 -44 -9 -15 -14 -20 -11 -10 3 10 2 16 -3 13 -5 -3 -14 1
-21 9 -10 12 -7 13 14 9 32 -5 33 7 4 32 l-23 19 20 -25 20 -25 -25 20 -25 20
15 -20 15 -20 -24 20 c-14 11 -22 15 -18 9 3 -6 -1 -11 -9 -11 -10 0 -11 4 -4
11 5 5 10 14 10 19 0 5 -9 -1 -19 -14 -10 -13 -17 -32 -16 -41 4 -21 -6 -23
-24 -5 -11 10 -12 9 -6 -2 6 -10 4 -12 -5 -6 -9 6 -11 4 -5 -5 6 -9 4 -11 -5
-5 -9 6 -11 4 -5 -5 6 -9 4 -11 -5 -5 -9 6 -11 4 -5 -5 6 -9 4 -11 -5 -5 -9 6
-11 4 -5 -6 7 -11 5 -11 -11 1 -18 14 -18 14 -4 -5 14 -19 14 -19 -4 -5 -16
12 -18 12 -11 1 6 -10 4 -12 -5 -6 -8 5 -11 4 -7 -1 3 -6 -7 -10 -23 -9 -15 0
-26 4 -23 9 4 5 1 6 -6 2 -9 -6 -9 -11 1 -24 11 -13 10 -15 -4 -9 -11 4 -21 0
-27 -11 -8 -14 -10 -14 -11 -2 0 13 -1 13 -10 0 -6 -9 -5 -20 3 -30 10 -13 10
-13 -4 -3 -9 7 -20 9 -25 5 -4 -4 -2 2 6 13 14 20 14 20 -7 1 -13 -10 -20 -23
-16 -29 4 -6 1 -7 -8 -2 -8 5 -7 0 4 -12 22 -25 22 -30 -4 -44 -17 -9 -20 -8
-14 2 6 8 4 10 -5 4 -9 -6 -11 -4 -5 5 8 14 -3 9 -35 -14 -9 -6 -6 -1 7 11 18
17 19 22 7 27 -8 3 -12 2 -9 -4 3 -5 -4 -7 -15 -5 -11 2 -20 0 -20 -6 0 -5 5
-9 11 -9 5 0 7 -5 3 -11 -5 -8 -10 -6 -16 5 -5 9 -7 20 -3 25 6 11 -22 8 -32
-4 -4 -4 -2 -5 5 -1 6 4 12 2 12 -4 0 -7 -7 -9 -16 -6 -10 4 -13 2 -8 -7 5 -7
0 -6 -12 3 -17 14 -18 14 -6 -2 9 -11 10 -18 2 -23 -5 -3 -10 -3 -10 1 0 4 -7
-1 -16 -12 -8 -10 -12 -12 -8 -4 7 13 5 13 -9 1 -9 -7 -17 -10 -17 -6 0 4 -8
1 -17 -6 -14 -12 -16 -12 -9 1 4 8 -4 2 -17 -14 -16 -18 -29 -26 -37 -21 -9 6
-11 4 -5 -6 5 -8 5 -11 0 -7 -4 4 -15 2 -23 -5 -13 -10 -14 -9 -8 3 5 8 -2 4
-15 -10 -13 -14 -21 -21 -16 -16 12 17 8 28 -9 22 -10 -4 -13 -2 -8 6 5 7 3 8
-6 3 -9 -6 -11 -4 -5 4 6 10 3 11 -15 1 -14 -8 -19 -17 -15 -28 3 -9 3 -13 -1
-9 -4 4 -16 -1 -27 -10 -15 -13 -19 -14 -13 -3 4 8 1 7 -7 -3 -10 -12 -17 -14
-22 -8 -3 6 -1 11 6 11 7 0 9 3 6 6 -4 4 -14 1 -24 -7 -9 -8 -14 -9 -10 -2 5
7 1 10 -10 8 -10 -2 -22 -4 -27 -4 -5 -1 -6 -4 -3 -8 4 -3 1 -13 -6 -22 -11
-14 -10 -15 8 -1 18 14 19 13 8 -1 -7 -9 -9 -20 -5 -25 4 -4 -1 -2 -11 5 -14
11 -15 17 -5 30 7 9 8 13 4 9 -5 -4 -15 -3 -23 3 -9 9 -13 8 -13 0 0 -6 5 -11
11 -11 5 0 8 -4 4 -10 -8 -13 -36 0 -28 14 3 6 -3 2 -16 -8 -12 -12 -19 -26
-16 -35 3 -9 -5 -5 -17 9 -13 14 -19 20 -15 14 6 -8 2 -11 -10 -9 -10 1 -23
-2 -30 -7 -7 -5 -17 -7 -22 -4 -5 4 -13 1 -17 -5 -5 -8 -3 -9 6 -4 9 6 11 4 5
-4 -6 -10 -3 -11 13 -2 14 7 23 8 27 1 6 -9 -8 -14 -27 -11 -5 0 -8 -4 -8 -11
0 -6 -6 -3 -14 8 -8 10 -18 16 -22 12 -4 -4 -14 -2 -22 5 -12 9 -14 9 -9 0 5
-8 1 -11 -13 -8 -13 3 -18 0 -14 -7 5 -7 2 -8 -6 -3 -7 4 -16 2 -22 -6 -8 -11
-9 -11 -5 2 3 9 -1 16 -9 16 -12 0 -12 -4 1 -24 9 -12 12 -23 8 -23 -11 0 -40
20 -29 20 5 0 3 7 -4 15 -11 13 -15 12 -38 -6 -24 -18 -27 -19 -38 -4 -9 12
-13 13 -17 3 -4 -10 -6 -10 -6 0 -1 6 -5 12 -11 12 -5 0 -9 -6 -7 -12 1 -8 -7
-12 -21 -12 -21 1 -21 0 -7 -16 26 -29 17 -35 -13 -8 -36 34 -84 33 -88 -2 -1
-14 0 -19 3 -12 3 9 9 10 18 2 14 -11 45 -3 45 12 0 5 4 7 10 3 5 -3 8 -11 6
-18 -1 -7 -1 -8 2 -4 2 4 10 3 18 -4 11 -9 15 -8 20 4 5 14 43 15 66 1 4 -3 8
-3 8 1 0 3 -12 10 -26 15 -14 6 -22 15 -18 21 3 6 9 7 13 3 5 -8 19 -15 74
-42 4 -2 6 2 5 9 -2 6 3 14 11 17 8 2 11 1 8 -4 -3 -5 7 -10 21 -10 15 -1 21
1 14 3 -6 3 -9 9 -6 15 4 5 13 3 24 -7 14 -12 20 -13 26 -4 4 8 3 10 -4 5 -7
-4 -12 -3 -12 3 0 18 17 21 30 6 13 -15 35 -10 25 6 -9 13 52 4 72 -12 16 -13
17 -12 4 4 -15 20 -2 23 19 5 12 -11 12 -10 2 4 -8 9 -9 19 -4 22 6 3 12 -1
16 -9 3 -8 11 -15 18 -15 9 0 9 3 -2 10 -8 5 -11 12 -7 16 3 4 13 1 22 -6 9
-7 18 -10 22 -6 3 3 1 6 -6 6 -7 0 -10 4 -6 10 3 5 12 7 20 4 8 -4 12 -11 8
-17 -3 -6 -1 -7 6 -3 6 4 9 11 6 16 -3 5 -1 11 5 15 5 3 10 1 10 -6 0 -7 3 -9
7 -6 3 4 13 1 22 -5 13 -10 14 -10 4 2 -16 18 -17 38 -2 23 6 -6 18 -9 27 -6
11 5 13 3 7 -8 -7 -12 -6 -12 11 1 10 8 29 23 42 34 23 20 32 10 10 -12 -9 -9
-9 -12 0 -12 7 0 12 4 12 10 0 5 3 9 8 9 17 -3 30 2 50 21 14 13 22 16 22 8 0
-9 3 -9 10 2 8 12 10 12 11 -5 0 -11 3 -14 6 -7 4 10 8 10 21 0 15 -12 16 -11
3 5 -15 20 -2 23 19 5 12 -11 12 -10 2 3 -16 22 -2 33 15 11 10 -13 12 -13 8
-2 -4 11 1 16 15 17 11 1 18 -2 15 -7 -3 -6 1 -7 10 -4 14 6 14 7 -1 18 -14
11 -14 13 2 27 16 12 17 12 11 -3 -4 -13 -2 -15 10 -11 8 3 18 0 23 -6 5 -9 9
-8 13 4 4 9 3 13 -2 10 -11 -6 -8 41 2 52 6 6 9 -4 6 -23 -1 -8 22 -24 34 -24
5 0 1 7 -7 16 -19 19 -21 31 -3 16 10 -9 19 -7 36 5 22 15 23 15 16 -8 -7 -22
-7 -22 9 -6 10 9 22 17 27 17 5 0 9 7 9 16 0 8 5 12 10 9 6 -4 7 -11 4 -17 -4
-7 -2 -8 4 -4 6 4 8 14 5 24 -6 15 -5 15 10 3 20 -16 36 -6 19 11 -7 7 -12 17
-12 23 1 5 10 -1 20 -14 11 -13 20 -19 20 -14 0 6 18 18 40 28 36 16 55 45 29
45 -5 0 -8 4 -4 10 3 5 12 7 20 4 8 -4 12 -10 9 -15 -3 -5 3 -6 12 -2 13 5 15
3 9 -8 -6 -10 -3 -9 11 2 10 9 30 15 43 14 21 -2 22 0 7 10 -16 12 -23 31 -7
21 9 -6 38 24 36 39 0 6 -4 17 -10 25 -8 13 -7 13 8 1 19 -15 23 -46 7 -56 -5
-3 -10 -12 -10 -18 0 -7 5 -4 11 6 6 9 15 15 21 11 7 -4 8 2 3 17 -7 21 -6 22
7 11 12 -10 18 -9 28 3 7 8 17 12 23 8 6 -4 7 -1 2 7 -6 10 -4 12 10 6 16 -6
16 -4 4 11 -12 15 -12 16 3 10 10 -3 17 -3 15 1 -1 4 5 15 13 23 13 15 16 15
27 0 12 -14 12 -14 6 3 -4 13 -3 17 5 12 8 -5 10 -1 5 10 -5 13 -3 15 8 8 21
-13 38 -14 46 -2 3 7 1 8 -5 4 -6 -3 -16 3 -22 14 -10 18 -9 21 7 18 10 -2 24
-10 31 -18 8 -8 11 -10 8 -3 -4 6 2 16 11 22 16 9 15 10 -6 8 -13 -1 -25 4
-27 11 -1 7 0 8 3 2 3 -8 9 -7 19 1 8 6 14 8 14 4 0 -4 8 -1 17 6 15 12 16 12
10 -4 -4 -11 -3 -16 3 -12 6 4 8 18 6 32 -4 19 -2 23 10 19 8 -3 13 -2 10 3
-3 5 1 12 10 15 11 4 15 2 11 -7 -3 -8 1 -14 8 -14 7 0 11 6 8 14 -5 12 9 18
31 14 5 -1 4 4 -2 12 -7 8 -9 17 -5 20 3 4 12 -1 20 -11 8 -9 12 -12 9 -5 -4
6 -2 14 4 18 6 4 8 10 5 15 -3 5 3 15 15 22 11 7 20 19 20 26 0 7 5 10 10 7 6
-4 7 -12 4 -18 -4 -7 -3 -8 2 -4 5 5 10 13 10 18 1 5 2 12 3 16 0 4 8 -2 17
-13 14 -17 14 -16 0 9 -14 24 -6 41 8 18 7 -10 32 -9 43 3 4 4 4 6 -2 4 -14
-4 -57 27 -48 35 3 4 15 0 25 -10 10 -9 21 -13 25 -10 3 4 1 7 -6 7 -7 0 -10
4 -6 9 3 6 14 8 25 6 14 -3 17 1 13 12 -5 12 -3 14 7 8 9 -6 11 -4 5 5 -6 10
-4 12 8 7 18 -7 36 11 32 34 -2 9 8 22 21 29 13 7 21 17 18 22 -3 4 3 8 13 8
15 0 16 2 3 10 -14 9 -7 14 13 11 4 -1 15 5 23 14 9 8 13 15 9 15 -4 0 0 7 7
15 41 46 43 49 24 42 -12 -5 -16 -3 -13 5 2 8 18 12 38 11 32 -2 33 -1 11 11
-12 6 -20 15 -16 19 4 4 13 2 19 -3 9 -8 14 -6 18 4 8 21 -10 31 -28 16 -9 -7
-15 -8 -15 -2 0 5 7 15 15 22 12 10 19 10 27 2 7 -7 19 -12 27 -11 10 0 7 4
-7 10 -13 5 -20 14 -16 20 3 6 9 7 13 3 3 -5 12 -10 20 -12 11 -2 10 3 -4 24
-17 26 -17 27 1 20 39 -16 50 -18 36 -9 -7 5 -10 17 -6 27 6 15 7 15 18 1 10
-15 12 -14 12 4 0 11 -3 19 -6 19 -18 -2 -23 4 -10 12 13 8 12 12 -4 27 -19
17 -19 17 -6 -2 15 -20 14 -20 -8 -1 -12 11 -22 21 -22 24 0 3 3 2 7 -1 3 -4
16 1 27 10 16 14 18 14 11 3 -6 -10 -4 -9 6 2 9 9 19 15 22 11 4 -3 -2 -13
-11 -22 -11 -10 -12 -12 -2 -6 13 8 13 7 3 -6 -10 -13 -10 -19 2 -35 11 -14
14 -15 9 -3 -3 10 0 20 5 24 6 3 9 11 5 16 -7 12 25 51 36 44 4 -2 7 2 8 10 1
8 3 22 4 30 1 8 8 15 16 15 8 0 12 6 9 14 -8 20 4 28 20 15 8 -7 13 -8 13 -1
0 5 -8 13 -17 17 -16 6 -16 8 6 26 12 10 27 16 32 13 5 -3 9 0 9 6 0 7 -9 9
-22 5 l-23 -6 24 20 c12 12 27 18 32 15 5 -3 9 0 9 5 0 6 -5 11 -11 11 -8 0
-9 4 0 13 6 8 7 18 3 22 -4 5 2 5 13 2 19 -7 19 -7 1 8 -10 8 -24 12 -30 8 -6
-3 -6 -1 1 7 10 11 17 10 38 -4 l26 -17 -27 43 c-15 24 -20 37 -11 29 12 -9
17 -10 17 -2 0 7 5 9 10 6 6 -3 10 -1 10 5 0 6 5 8 13 4 9 -6 9 -5 0 7 -12 15
-12 43 0 55 4 4 7 2 7 -5 0 -9 4 -9 14 1 12 11 12 14 -1 21 -12 8 -12 11 2 27
9 10 14 23 11 29 -4 5 -2 12 4 16 5 3 10 2 10 -3 0 -5 7 -9 16 -9 15 0 15 1 0
12 -15 12 -15 13 1 20 17 6 17 7 0 20 -16 11 -16 13 -1 19 22 8 26 8 20 -3 -7
-11 20 -8 31 3 4 4 1 6 -7 4 -8 -2 -14 2 -13 9 2 7 -4 10 -12 7 -11 -5 -13 -2
-9 10 5 12 11 13 27 5 21 -10 21 -9 3 5 -10 9 -23 13 -27 10 -5 -3 -9 -1 -9 4
0 16 13 22 25 12 9 -7 17 -5 26 7 9 11 10 14 2 9 -8 -4 -13 -2 -13 4 0 7 -6
10 -13 7 -8 -3 -14 3 -14 14 -1 10 3 19 8 19 6 0 7 -4 4 -10 -3 -5 -2 -10 3
-10 12 0 26 30 23 49 -2 13 0 13 16 1 16 -13 16 -13 -1 8 -19 22 -10 32 11 11
8 -8 13 -7 18 3 5 7 5 10 0 6 -9 -9 -35 9 -35 24 0 6 5 6 14 -1 11 -9 13 -6
11 14 -2 14 2 25 8 25 7 1 1 7 -13 15 -15 9 -19 14 -10 15 13 0 13 1 0 10 -8
5 -13 10 -10 11 3 0 13 2 23 4 14 3 16 -1 12 -16 -4 -12 -2 -19 6 -19 7 0 9 3
6 7 -4 3 0 18 10 32 15 24 15 25 0 12 -10 -8 -17 -9 -17 -3 0 6 5 14 10 17 15
9 12 42 -5 49 -8 3 -15 11 -15 17 0 8 4 9 13 0 11 -8 16 -5 26 15 6 14 9 29 6
34 -3 5 3 11 12 13 17 4 17 5 1 6 -10 0 -18 6 -18 11 0 6 8 10 18 11 13 0 12
3 -5 11 -13 6 -23 15 -23 20 0 12 14 10 29 -5 10 -10 12 -9 9 3 -2 8 3 14 10
12 8 -1 11 2 7 8 -5 8 -11 7 -21 -1 -9 -7 -14 -8 -14 -1 0 6 4 14 10 17 5 3 8
16 6 28 -1 12 4 27 13 34 10 7 11 12 4 13 -6 0 -15 -5 -19 -11 -7 -12 -24 6
-24 26 0 6 4 4 9 -4 6 -9 11 -10 15 -2 4 6 11 9 16 6 12 -7 4 34 -10 50 -8 9
-6 14 7 20 17 6 17 7 1 16 -11 6 -15 16 -11 26 5 13 2 15 -13 10 -18 -7 -18
-6 1 8 12 10 21 12 23 5 2 -5 8 -10 14 -10 7 0 7 5 -1 13 -6 8 -8 17 -4 20 3
4 0 13 -7 22 -7 9 -10 19 -6 22 4 4 11 1 16 -7 8 -12 11 -13 22 -2 11 11 10
13 -1 10 -7 -2 -16 3 -19 11 -3 8 0 11 7 7 7 -5 9 -1 4 9 -4 12 -8 13 -13 5
-4 -7 -9 -8 -12 -4 -4 8 -4 17 1 42 1 4 6 0 11 -8 7 -11 10 -11 10 -2 0 7 4
11 9 7 5 -3 12 -1 15 4 3 4 -4 8 -16 7 -12 0 -23 5 -25 12 -3 6 1 10 9 9 7 -2
10 -2 5 0 -4 3 -4 10 0 16 4 7 -1 6 -10 -2 -25 -20 -21 -5 10 37 16 20 21 32
13 26 -12 -9 -18 -9 -28 2 -12 14 -12 15 7 18 5 0 13 5 18 10 4 5 3 6 -3 3 -6
-4 -16 4 -22 18 -10 21 -8 25 9 30 11 4 18 9 15 12 -3 4 0 13 7 22 10 14 10
14 -4 4 -12 -10 -18 -10 -27 -1 -10 10 -7 16 10 30 16 13 17 16 5 12 -13 -5
-16 -2 -11 10 3 9 0 23 -7 32 -10 13 -10 17 0 24 10 6 8 10 -8 15 -28 9 -24
41 4 37 12 -2 16 0 9 5 -7 4 -11 20 -9 35 2 15 0 27 -3 27 -20 -3 -25 2 -12
11 10 6 11 13 5 19 -7 7 -16 7 -25 1 -13 -9 -13 -10 0 -10 13 0 13 -1 0 -10
-8 -5 -10 -10 -5 -10 6 0 11 -9 12 -20 1 -12 -3 -18 -9 -14 -6 4 -6 -1 1 -15
9 -16 9 -20 -2 -15 -10 3 -14 18 -12 45 1 22 -2 39 -8 39 -6 0 -2 7 9 16 10 8
14 13 7 10 -15 -8 -27 11 -12 20 8 4 7 9 -2 16 -11 8 -11 9 1 5 8 -2 14 -9 13
-15 -3 -14 25 -24 32 -11 4 5 11 6 17 3 7 -4 8 -2 4 5 -6 9 -11 9 -22 0 -9 -7
-14 -8 -14 -1 0 6 5 14 11 18 8 4 7 9 -2 15 -12 8 -11 11 1 20 13 9 12 10 -2
5 -20 -6 -35 10 -16 17 7 2 10 8 6 12 -10 11 -18 3 -23 -24 -2 -12 0 -19 4
-16 5 3 12 -2 15 -11 9 -24 8 -25 -14 -12 -11 7 -18 18 -16 25 3 6 2 14 -2 18
-4 4 -7 21 -7 38 -1 18 -5 38 -9 46 -6 10 -5 12 2 7 7 -4 12 -3 12 2 0 5 10
12 22 15 18 5 19 9 9 21 -7 8 -10 20 -7 25 7 11 -26 7 -46 -5 -6 -4 -8 -3 -5
2 3 6 2 16 -3 24 -5 9 -4 20 3 28 19 23 18 51 -2 62 -18 9 -38 79 -34 118 0 6
-3 12 -7 12 -15 0 -18 43 -4 65 12 18 12 22 0 22 -9 0 -12 -7 -9 -16 4 -11 3
-13 -5 -6 -5 6 -12 21 -14 35 -1 14 -7 28 -12 31 -5 4 -8 18 -8 33 0 14 -5 26
-10 26 -6 0 -8 13 -4 33 4 20 3 27 -3 18 -7 -11 -10 -8 -16 10 -27 93 -143
345 -218 474 -43 75 -166 267 -177 275 -3 3 -17 21 -30 40 -41 58 -192 230
-277 315 -341 342 -738 582 -1214 733 -97 31 -282 77 -355 87 -21 4 -46 8 -54
10 -8 2 -42 7 -75 11 -33 3 -69 8 -80 10 -11 2 -83 6 -160 10 -77 3 -145 7
-152 9 -6 2 -13 2 -15 1z m2939 -2388 c-1 -10 -2 -18 -4 -18 -1 0 -7 8 -12 18
-7 14 -6 19 4 19 7 0 13 -9 12 -19z m43 -102 c14 -18 13 -19 -2 -13 -9 3 -19
1 -21 -6 -2 -7 -7 -9 -11 -5 -4 3 -2 16 4 28 6 12 13 20 14 18 1 -1 8 -12 16
-22z m32 -312 c-9 -16 -10 -14 -9 8 1 15 6 23 11 18 4 -4 4 -16 -2 -26z m-12
-54 c11 -11 15 -20 10 -20 -6 0 -4 -10 4 -22 19 -29 15 -54 -10 -73 -13 -10
-14 -13 -3 -10 9 3 22 -1 29 -11 12 -14 12 -17 -3 -26 -13 -7 -15 -13 -7 -29
12 -21 5 -43 -11 -34 -18 12 -8 -7 14 -25 l22 -18 -22 -24 c-18 -20 -19 -25
-7 -36 15 -14 11 -32 -8 -32 -6 0 -7 8 -3 18 5 14 4 15 -7 4 -11 -11 -10 -16
6 -28 14 -10 16 -14 5 -14 -10 -1 -9 -4 4 -11 14 -8 15 -14 7 -24 -8 -10 -8
-19 -1 -33 9 -17 6 -23 -14 -36 -27 -18 -34 -42 -9 -32 8 3 12 2 9 -3 -3 -5
-1 -13 5 -16 8 -5 8 -11 0 -20 -8 -9 -8 -15 0 -20 6 -3 8 -11 5 -16 -4 -5 -1
-9 5 -9 6 0 8 -5 5 -10 -4 -6 -14 -9 -23 -8 -20 4 -26 -38 -6 -46 16 -6 10
-43 -12 -67 -9 -10 -13 -23 -8 -31 9 -15 13 -67 6 -86 -2 -7 -11 -11 -18 -8
-22 8 -27 -14 -8 -35 15 -17 16 -22 3 -45 -7 -14 -15 -21 -17 -15 -2 6 -8 11
-13 11 -6 0 -8 -4 -4 -9 3 -5 1 -12 -4 -15 -13 -8 -7 -36 10 -47 12 -7 12 -9
-1 -9 -13 0 -13 -1 0 -10 13 -9 13 -10 0 -11 -8 -1 -18 -1 -21 -1 -4 1 -5 -19
-4 -44 2 -44 -7 -64 -20 -44 -13 21 -23 9 -20 -25 1 -23 -3 -39 -13 -44 -10
-6 -11 -10 -3 -15 18 -11 13 -29 -6 -22 -17 6 -17 5 0 -8 17 -13 17 -14 0 -21
-17 -6 -17 -7 1 -21 11 -8 16 -14 10 -14 -5 -1 -22 -12 -39 -26 -16 -13 -22
-22 -12 -18 21 8 23 -9 2 -26 -12 -10 -13 -16 -3 -28 8 -10 8 -13 2 -9 -7 4
-17 0 -24 -8 -7 -8 -9 -15 -5 -15 4 0 2 -7 -5 -15 -10 -12 -10 -15 1 -15 11 0
11 -2 -1 -10 -23 -15 -33 -12 -26 8 5 15 4 15 -8 -2 -13 -16 -13 -21 2 -44 10
-16 12 -23 4 -18 -7 4 -19 2 -27 -4 -19 -16 -19 -34 -1 -27 9 4 13 0 12 -11
-2 -9 -9 -18 -16 -20 -7 -3 -10 0 -6 6 3 6 1 14 -5 18 -8 5 -9 3 -4 -6 5 -8 4
-11 -2 -7 -5 3 -10 0 -10 -8 0 -8 3 -14 6 -13 28 3 30 -5 7 -23 -14 -11 -24
-24 -21 -29 3 -4 -2 -13 -10 -20 -8 -7 -13 -16 -10 -20 3 -5 1 -11 -5 -15 -6
-4 -8 -11 -5 -16 3 -5 -1 -6 -9 -3 -11 4 -14 0 -11 -15 2 -11 -5 -32 -17 -46
-17 -22 -22 -24 -36 -13 -8 7 -18 13 -21 13 -3 0 -5 4 -3 8 1 5 -2 6 -7 2 -6
-3 -8 -12 -5 -19 5 -14 -10 -29 -34 -32 -10 -2 -11 1 -1 12 6 8 8 14 4 14 -4
0 -2 6 4 13 6 8 8 16 5 19 -3 3 1 5 8 4 7 0 14 4 16 9 2 6 10 18 19 27 14 15
14 20 2 35 -12 16 -12 17 1 6 12 -9 20 -7 39 8 14 11 18 19 10 19 -10 1 -9 4
3 10 10 6 15 19 13 30 -2 11 0 18 4 15 5 -2 14 2 21 10 7 8 9 15 5 15 -4 0 -2
7 5 15 6 8 9 18 6 23 -3 5 3 17 14 27 11 10 17 22 14 27 -3 4 0 7 8 6 7 -2 14
4 14 12 1 8 3 18 4 23 1 4 3 11 4 16 0 5 4 13 8 16 4 4 3 16 -3 26 -5 11 -7
19 -4 19 3 0 1 9 -5 20 -9 17 -8 19 7 13 15 -6 16 -4 6 9 -7 8 -9 18 -5 22 4
4 7 11 8 14 0 4 7 21 14 37 7 17 14 33 15 38 2 4 4 10 5 15 1 4 2 10 1 14 0 5
4 7 10 5 6 -1 14 4 17 12 3 10 0 11 -9 5 -12 -7 -12 -5 0 9 7 9 10 17 6 17 -4
0 -2 6 4 13 6 8 8 17 4 20 -3 4 -2 7 4 7 5 0 10 6 11 13 2 22 8 42 20 65 7 12
10 22 7 22 -4 0 -3 6 2 13 8 12 13 29 17 60 1 9 7 22 13 28 6 6 9 18 6 25 -3
8 -1 14 4 14 5 0 8 14 7 30 -1 17 2 32 6 35 5 3 7 14 5 25 -3 13 0 18 7 14 7
-5 9 -2 6 8 -4 8 -2 21 2 28 7 11 11 11 26 -1 10 -8 15 -9 11 -2 -4 6 -2 15 4
19 7 4 9 3 6 -3 -3 -5 0 -10 7 -10 8 0 13 7 11 16 -1 9 3 19 9 24 6 4 1 6 -12
4 -12 -2 -28 -9 -34 -15 -19 -19 -28 -14 -24 11 3 12 5 22 6 22 2 0 10 47 15
85 2 19 4 35 5 35 1 0 3 12 4 27 0 14 4 30 8 34 4 4 4 12 -2 18 -5 7 -5 18 0
26 8 13 11 13 22 1 11 -12 10 -13 -2 -6 -10 6 -8 1 4 -13 11 -12 24 -22 29
-22 6 0 2 7 -9 16 -10 8 -12 12 -4 8 13 -7 13 -5 2 8 -11 14 -10 18 5 27 16 9
16 10 -4 8 -12 0 -19 -5 -17 -9 3 -4 -2 -5 -11 -1 -9 3 -13 9 -8 12 13 10 14
31 1 31 -9 0 -8 4 2 10 13 9 13 11 0 20 -8 5 -10 10 -4 10 7 0 10 13 9 30 -1
16 1 28 5 25 3 -2 7 9 7 25 0 16 -3 27 -6 25 -4 -2 -6 12 -6 30 0 25 3 31 12
23 7 -6 11 -14 8 -18 -3 -4 2 -13 10 -20 10 -9 15 -9 15 -1 0 6 -4 11 -8 11
-5 0 -9 6 -9 13 -1 24 -8 42 -23 54 -12 10 -12 12 -1 13 11 0 11 3 1 14 -10
13 -7 14 17 11 26 -4 26 -3 6 6 -23 12 -37 45 -22 54 4 3 4 17 -1 30 -11 30
-6 31 20 5z m-24 -692 c4 -7 4 -10 -1 -6 -4 4 -15 2 -24 -5 -14 -11 -14 -10
-2 6 16 20 18 21 27 5z m-451 -1199 c-6 -28 -15 -40 -26 -34 -18 12 -31 -6
-17 -23 7 -10 8 -14 4 -10 -5 5 -25 -4 -43 -18 -19 -14 -35 -24 -36 -23 -2 2
-9 13 -17 24 -8 11 -10 17 -6 13 11 -10 38 11 30 23 -3 5 0 8 8 7 7 -2 12 2
11 9 -3 11 35 39 47 35 3 -1 6 3 6 8 1 6 3 13 4 18 1 4 2 11 0 17 -1 5 8 1 19
-9 11 -10 18 -26 16 -37z m-175 -151 c16 -20 20 -21 36 -8 17 14 18 14 6 -2
-8 -9 -11 -22 -7 -27 7 -13 -35 -72 -47 -65 -4 3 -17 -11 -29 -30 -12 -20 -25
-33 -30 -30 -8 5 -13 -9 -10 -28 2 -12 -17 -10 -24 2 -3 6 0 10 7 10 10 0 10
2 -1 9 -16 10 -3 20 22 15 11 -1 16 0 13 3 -3 4 -1 12 4 18 7 9 5 17 -7 26
-14 12 -16 12 -8 0 5 -9 4 -12 -3 -7 -7 4 -10 -1 -7 -13 3 -15 -1 -19 -16 -16
-12 3 -17 0 -13 -7 4 -6 3 -8 -2 -5 -6 3 -16 1 -24 -5 -12 -8 -11 -9 5 -4 19
6 19 5 2 -8 -17 -13 -17 -14 0 -21 21 -10 29 -12 44 -14 5 0 8 -5 4 -11 -3 -5
-12 -7 -19 -4 -8 3 -21 -5 -30 -18 -9 -12 -16 -19 -16 -14 0 5 -6 3 -14 -3
-10 -9 -16 -9 -21 -1 -7 11 -35 -4 -33 -18 0 -4 -1 -10 -2 -14 -1 -5 -3 -14
-4 -20 0 -7 -7 -14 -13 -14 -7 -1 -18 -2 -24 -3 -5 0 -8 -5 -5 -10 3 -4 -3
-16 -14 -26 -11 -10 -17 -22 -14 -26 3 -5 0 -9 -6 -9 -7 0 -10 7 -6 18 4 10
-1 7 -13 -8 -11 -13 -17 -28 -15 -32 4 -7 -11 -12 -18 -6 -2 1 -14 -4 -27 -11
-16 -9 -21 -9 -16 -1 4 6 -1 21 -12 33 l-18 22 23 -19 c12 -11 23 -16 23 -13
5 26 4 34 -9 49 -13 16 -12 17 6 13 12 -2 30 7 48 26 31 33 50 38 39 12 -5
-15 -4 -16 7 -5 11 11 9 16 -7 29 -13 11 -15 14 -4 10 21 -7 173 148 163 166
-5 8 -2 7 9 -2 15 -12 21 -9 19 10 -1 3 17 25 39 48 36 39 43 53 40 74 -2 14
11 7 29 -15z m-113 -183 c0 -8 -4 -12 -9 -9 -5 3 -6 10 -3 15 9 13 12 11 12
-6z m-322 -255 c-3 -4 2 -13 10 -20 11 -9 12 -15 2 -25 -10 -11 -14 -9 -24 8
-6 12 -10 24 -8 28 2 3 -3 6 -11 6 -10 0 -11 -4 -4 -11 15 -15 12 -30 -3 -17
-10 8 -14 7 -14 -3 0 -8 8 -13 19 -11 10 2 18 -1 18 -6 0 -5 -8 -9 -17 -7 -12
2 -18 -3 -17 -14 1 -10 -2 -15 -7 -12 -18 11 -29 -7 -18 -29 9 -19 7 -18 -10
3 -18 23 -21 24 -36 9 -14 -14 -14 -16 -1 -16 8 0 13 4 10 9 -3 4 0 8 5 8 6 0
11 -3 11 -7 0 -12 -20 -39 -20 -29 0 5 -11 -1 -25 -14 -27 -26 -35 -21 -9 5
15 15 15 17 -2 36 -14 16 -15 20 -4 17 8 -2 14 2 13 8 -1 6 10 11 25 10 17 -1
26 4 25 12 -2 6 2 11 9 10 7 -2 12 2 13 7 2 20 26 55 35 50 5 -3 11 -1 15 5 4
6 11 8 16 4 5 -3 7 -9 4 -14z m-231 -151 c-2 -4 3 -12 11 -19 16 -14 10 -34
-7 -24 -7 4 -8 2 -4 -4 4 -6 14 -8 24 -5 15 6 15 5 3 -11 -14 -17 -15 -17 -28
0 -7 10 -13 14 -13 9 0 -20 -24 17 -25 38 -1 18 4 23 21 23 12 0 21 -3 18 -7z
m-68 -38 c-3 -5 0 -11 8 -14 24 -9 10 -52 -17 -52 -7 0 -11 -9 -10 -18 0 -10
-2 -16 -5 -13 -3 3 -11 1 -19 -5 -10 -9 -13 -8 -13 1 0 8 -3 10 -6 7 -4 -3
-14 -2 -23 3 -12 6 -24 2 -41 -11 -14 -11 -18 -17 -9 -13 31 10 30 -15 -1 -31
-28 -14 -35 -13 -31 8 1 5 -3 6 -8 2 -6 -3 -7 -13 -4 -23 5 -14 3 -14 -16 3
-13 11 -26 19 -29 17 -3 -1 -7 4 -8 12 -2 15 12 16 34 2 20 -12 27 1 11 21 -8
9 -9 14 -2 10 7 -4 16 0 22 10 6 10 11 12 11 5 0 -10 4 -10 20 0 14 9 16 15 7
20 -7 5 0 7 15 4 15 -3 30 0 34 5 3 5 9 7 13 5 4 -3 21 8 36 24 28 30 41 39
31 21z m-349 -177 c-3 -4 1 -13 9 -21 13 -14 17 -13 35 3 14 13 23 14 30 7 15
-15 1 -37 -14 -24 -8 6 -18 5 -31 -4 -15 -12 -22 -12 -40 0 -18 11 -24 12 -39
0 -12 -9 -14 -14 -6 -17 7 -2 9 -10 5 -17 -6 -9 -11 -9 -21 -1 -10 8 -18 4
-34 -16 -12 -15 -21 -21 -21 -13 0 11 -2 11 -10 -1 -5 -8 -10 -12 -10 -7 0 4
-10 1 -23 -8 -13 -8 -33 -13 -44 -11 -12 3 -27 -2 -34 -10 -15 -18 -54 -41
-45 -26 13 21 -20 18 -48 -5 -22 -18 -31 -21 -42 -12 -11 9 -14 8 -14 -2 0
-12 -2 -12 -9 0 -5 7 -15 10 -22 7 -8 -4 -5 0 5 8 11 9 14 16 8 16 -7 0 -12 5
-12 11 0 8 5 8 15 -1 8 -7 15 -9 15 -5 0 4 6 2 14 -4 10 -8 19 -6 39 9 15 12
30 21 34 21 4 0 7 7 5 15 -3 16 14 19 23 4 4 -6 12 -7 18 -3 8 5 8 2 0 -9 -21
-25 -2 -28 31 -5 17 12 38 23 46 25 8 2 23 12 33 24 9 11 17 17 17 13 0 -4 6
-3 13 2 6 5 19 9 27 8 8 -1 33 11 54 27 37 26 58 37 43 22z m-1827 -174 c0 -5
-2 -10 -4 -10 -3 0 -8 5 -11 10 -3 6 -1 10 4 10 6 0 11 -4 11 -10z m1340 -11
c0 -5 5 -9 11 -9 5 0 7 5 3 12 -4 7 -3 8 5 4 15 -9 3 -29 -14 -22 -7 2 -18 -1
-25 -7 -10 -9 -11 -9 -6 0 3 6 1 13 -6 15 -6 2 -8 9 -4 16 7 12 36 5 36 -9z
m-58 -19 c4 -5 5 -8 2 -5 -4 2 -16 -2 -28 -10 -11 -8 -25 -15 -31 -15 -5 0 -2
5 8 11 14 8 16 14 7 24 -10 12 -7 13 11 10 12 -3 26 -9 31 -15z m-246 -36 c3
-17 -20 -29 -36 -19 -8 5 -6 13 6 26 18 20 26 18 30 -7z m90 7 c-4 -5 -15 -9
-26 -8 -10 1 -16 5 -14 9 3 5 9 6 14 3 5 -3 12 0 15 6 4 5 9 8 12 5 3 -2 2 -9
-1 -15z m34 7 c0 6 5 12 11 12 8 0 9 -4 0 -13 -6 -8 -7 -18 -3 -23 4 -4 -1 -2
-10 5 -10 7 -18 19 -18 25 0 6 5 4 10 -4 6 -10 10 -11 10 -2z m-223 -22 c0
-15 -21 -16 -34 -1 -4 4 -3 5 4 1 6 -3 14 -2 18 4 8 14 12 13 12 -4z m-91 -14
c-14 -14 -18 -15 -31 -2 -13 13 -11 15 16 16 28 2 30 0 15 -14z m-256 1 c0 -1
-9 -7 -19 -12 -14 -8 -20 -7 -24 2 -3 8 4 13 19 13 13 0 24 -1 24 -3z"/>
<path d="M6135 3270 c-6 -9 -4 -11 5 -5 10 6 12 4 7 -8 -3 -9 -2 -19 3 -22 15
-9 20 11 6 30 -10 14 -15 15 -21 5z"/>
<path d="M6159 3172 c9 -7 10 -11 2 -15 -7 -4 -8 -5 0 -3 15 2 13 20 -3 24
-10 3 -10 2 1 -6z"/>
<path d="M6146 3049 c3 -5 2 -15 -3 -21 -11 -18 -12 -58 -1 -52 5 3 7 9 4 12
-4 3 4 16 16 29 12 12 18 26 14 30 -10 11 -37 12 -30 2z m10 -27 c-17 -16 -18
-16 -5 5 7 12 15 20 18 17 3 -2 -3 -12 -13 -22z"/>
<path d="M6134 2936 c1 -8 5 -18 8 -22 4 -3 5 1 4 10 -1 8 -5 18 -8 22 -4 3
-5 -1 -4 -10z"/>
<path d="M6118 2859 c6 -9 9 -19 5 -23 -4 -3 -8 -16 -10 -28 -2 -12 -2 -20 -1
-17 2 2 11 13 21 25 16 20 16 22 -5 40 -14 11 -18 13 -10 3z"/>
<path d="M6107 2772 c-2 -4 -3 -23 -2 -42 1 -19 -1 -39 -4 -45 -3 -5 -6 -13
-7 -17 -1 -5 -2 -9 -4 -10 -1 -2 -3 -11 -5 -21 -3 -17 -2 -17 14 -3 10 9 20
13 24 10 8 -8 3 18 -6 32 -6 11 18 29 35 26 8 -2 4 25 -5 34 -4 4 -2 13 4 21
6 7 10 13 8 14 -37 7 -49 8 -52 1z m31 -20 c-9 -10 -9 -15 1 -21 9 -6 8 -11
-4 -21 -17 -14 -17 -14 -20 18 -1 12 3 22 9 22 6 0 4 5 -4 10 -12 7 -10 9 7 7
17 -1 20 -4 11 -15z m-24 -81 c3 -5 -2 -15 -12 -22 -15 -12 -16 -12 -5 2 7 9
10 19 6 22 -3 4 -4 7 0 7 3 0 8 -4 11 -9z"/>
<path d="M6079 2585 c-2 -13 -5 -28 -9 -37 -1 -5 -4 -12 -5 -18 -1 -5 -4 -12
-5 -15 -1 -3 -3 -17 -4 -32 -1 -16 -5 -34 -9 -40 -5 -7 -5 -13 -1 -13 4 0 -1
-9 -12 -21 -10 -11 -14 -20 -9 -19 23 5 24 -1 5 -20 -12 -12 -18 -25 -15 -30
3 -5 1 -11 -4 -14 -5 -4 -8 -18 -5 -31 3 -16 0 -24 -7 -23 -6 2 -13 -4 -15
-12 -11 -51 -14 -61 -21 -73 -11 -18 -12 -36 -2 -43 5 -3 -2 -15 -16 -26 -14
-11 -24 -23 -21 -26 3 -3 1 -11 -5 -19 -6 -7 -8 -13 -4 -13 5 0 0 -9 -10 -20
-10 -11 -15 -20 -10 -20 4 0 2 -6 -4 -14 -9 -10 -9 -16 -1 -21 8 -5 7 -11 -2
-22 -7 -9 -13 -17 -12 -17 16 -19 21 -45 12 -54 -7 -7 -8 -12 -4 -12 5 0 2 -8
-5 -17 -12 -15 -12 -16 1 -8 8 6 18 10 23 10 4 0 7 5 8 10 0 6 8 18 16 28 9 9
12 17 8 17 -4 0 0 10 11 22 10 12 14 18 7 15 -27 -16 -21 13 7 33 24 17 28 25
20 35 -8 10 -8 15 0 20 8 5 8 11 -1 21 -11 13 -5 19 16 14 6 -1 5 4 -2 11 -12
12 -6 42 7 34 10 -6 8 15 -3 33 -5 7 -3 12 4 12 7 0 4 6 -7 14 -16 12 -17 17
-6 28 11 11 12 10 7 -4 -8 -19 9 -25 20 -7 5 6 11 5 19 -6 9 -13 11 -10 11 17
0 18 -4 39 -8 46 -7 11 3 16 25 13 5 0 3 29 -2 37 -6 7 -5 28 1 37 4 6 9 15
11 20 1 6 9 10 17 10 22 0 22 33 0 48 -18 13 -18 15 -2 30 10 8 23 16 28 16
13 1 14 32 2 49 -6 8 -5 12 3 12 10 0 10 3 0 15 -10 12 -10 18 1 33 12 15 12
16 -2 5 -12 -10 -18 -10 -27 -1 -7 7 -13 8 -13 3z m27 -47 c1 -13 3 -23 4 -23
1 0 3 -11 5 -25 2 -14 1 -20 -1 -13 -4 8 -14 3 -29 -15 -22 -25 -23 -28 -8
-40 20 -14 26 -43 9 -36 -7 3 -19 -2 -26 -11 -7 -8 -9 -15 -5 -15 4 0 1 -7 -6
-17 -8 -9 -14 -17 -14 -18 0 -1 6 -9 14 -18 12 -16 12 -18 -5 -16 -12 1 -23
-25 -15 -36 9 -11 11 -48 3 -40 -3 3 -11 0 -19 -7 -11 -9 -13 -8 -11 3 2 8 -3
13 -10 11 -10 -2 -10 2 -3 17 6 10 7 22 3 26 -4 3 0 5 8 3 10 -2 15 5 16 22 1
14 2 27 4 30 1 3 3 13 5 23 2 10 11 24 21 31 12 9 14 15 5 20 -6 4 -8 13 -4
19 4 7 8 15 9 20 1 4 3 9 4 12 1 3 3 20 4 38 1 25 6 32 21 30 19 -1 19 -1 2
12 -12 9 -15 15 -7 20 6 4 9 14 5 24 -5 12 -4 13 6 4 7 -7 13 -23 15 -35z
m-121 -368 c-3 -5 -1 -11 5 -15 6 -4 4 -15 -6 -31 -9 -13 -13 -24 -8 -24 4 0
3 -5 -4 -12 -8 -8 -8 -15 -1 -24 7 -8 7 -14 -1 -19 -8 -5 -8 -11 1 -21 6 -8 9
-14 5 -14 -3 0 -8 0 -11 0 -2 0 -15 -10 -27 -23 -20 -19 -21 -24 -8 -34 13
-10 13 -12 -2 -18 -10 -4 -18 -11 -18 -17 0 -5 6 -6 13 -2 6 4 4 -2 -6 -13 -9
-11 -14 -23 -10 -28 5 -4 2 -5 -5 0 -10 5 -11 10 -3 18 5 5 7 17 2 26 -9 19
-8 32 2 48 4 6 3 15 -3 18 -8 5 -7 11 1 21 6 8 8 14 4 14 -5 0 0 9 10 20 10
11 15 20 10 20 -4 0 -2 7 5 15 7 8 9 15 5 15 -4 0 -2 7 5 15 7 8 16 13 20 10
4 -3 10 2 14 10 3 8 1 17 -4 20 -7 4 -7 18 -1 43 1 2 6 0 11 -3 6 -4 8 -10 5
-15z"/>
<path d="M6080 2500 c8 -5 10 -10 4 -10 -6 0 -11 -7 -11 -15 0 -20 2 -19 20 8
14 21 13 23 -6 25 -17 1 -19 -1 -7 -8z"/>
<path d="M6055 2410 c-8 -13 9 -20 24 -11 10 6 9 10 -3 14 -8 3 -18 2 -21 -3z"/>
<path d="M6029 2328 c-7 -23 -4 -35 7 -35 9 0 11 4 4 12 -5 7 -7 15 -3 18 3 4
3 7 0 7 -4 0 -7 -1 -8 -2z"/>
<path d="M6005 2250 c-4 -6 -3 -16 3 -22 6 -6 12 -6 17 2 4 6 3 16 -3 22 -6 6
-12 6 -17 -2z"/>
<path d="M5949 2106 c-4 -17 -7 -26 -9 -28 -1 -2 -3 -12 -5 -22 -2 -10 -10
-23 -17 -27 -10 -7 -10 -9 1 -9 11 0 10 -4 -4 -13 -12 -10 -14 -16 -7 -21 15
-9 34 2 27 15 -6 8 8 13 30 10 6 -1 2 5 -7 12 -19 15 -25 33 -9 22 5 -3 12 -1
15 4 4 5 2 13 -4 16 -8 5 -8 11 0 20 8 9 8 15 0 20 -5 3 -11 4 -11 1z"/>
<path d="M5903 1945 c0 -7 6 -11 14 -8 7 3 13 6 13 8 0 2 -6 5 -13 8 -8 3 -14
-1 -14 -8z"/>
<path d="M5841 1796 c-11 -12 -18 -25 -15 -29 4 -4 1 -13 -6 -22 -7 -8 -9 -15
-4 -15 4 0 -3 -11 -16 -25 -13 -14 -20 -25 -16 -25 5 0 3 -7 -4 -15 -7 -8 -10
-15 -6 -15 3 0 -11 -18 -32 -39 -24 -24 -38 -49 -38 -64 0 -14 3 -24 7 -21 4
2 11 0 14 -6 5 -8 11 -7 21 1 7 6 11 15 8 20 -3 5 1 9 8 9 9 0 9 3 -2 10 -13
8 -13 10 -1 10 11 0 9 4 -5 14 -16 12 -17 17 -6 28 11 11 12 10 6 -6 -5 -14
-3 -17 7 -14 8 3 12 13 11 23 -3 17 -2 17 15 5 10 -8 15 -10 10 -5 -4 4 0 17
10 27 9 10 12 18 8 18 -5 0 2 12 16 26 13 14 18 24 10 22 -25 -6 -19 29 10 65
33 40 24 59 -10 23z m29 11 c0 -2 -10 -12 -22 -23 l-23 -19 19 23 c18 21 26
27 26 19z m-54 -126 c-9 -10 -14 -20 -11 -23 3 -3 -1 -11 -9 -17 -12 -10 -14
-9 -11 6 2 10 4 19 5 21 2 1 3 5 4 10 3 17 18 32 27 26 6 -4 4 -13 -5 -23z
m-72 -128 c-1 -15 -2 -30 -3 -32 -1 -2 -7 2 -15 8 -15 13 -16 28 -3 49 13 19
24 6 21 -25z"/>
<path d="M5729 1578 c-6 -20 -6 -39 0 -42 4 -3 7 6 7 20 0 20 -4 32 -7 22z"/>
<path d="M5663 1505 c0 -8 4 -12 9 -9 5 3 6 10 3 15 -9 13 -12 11 -12 -6z"/>
<path d="M5649 1446 c-1 -3 -2 -9 -3 -13 -3 -16 -18 -33 -25 -29 -4 3 -13 1
-21 -5 -12 -7 -12 -9 -2 -9 8 0 0 -12 -17 -26 -39 -32 -31 -52 9 -22 16 12 27
24 25 28 -3 4 4 15 15 25 14 13 20 14 20 5 0 -19 10 -7 15 18 3 18 -12 45 -16
28z m-40 -79 c-2 -1 -15 -11 -29 -22 l-25 -20 19 23 c11 12 24 22 29 22 6 0 8
-1 6 -3z"/>
<path d="M5485 1264 c3 -4 -8 -19 -23 -34 -37 -37 -71 -78 -51 -62 13 10 19 9
29 -3 12 -14 15 -14 30 0 9 8 21 12 25 8 5 -5 4 -1 -3 9 -9 11 -10 18 -2 23 5
3 10 1 10 -5 0 -6 7 -4 16 5 16 15 15 18 -9 41 -15 13 -25 21 -22 18z m29 -45
c-3 -5 -9 -7 -14 -4 -4 3 -13 -2 -20 -10 -7 -8 -9 -15 -5 -15 4 0 2 -7 -5 -15
-10 -12 -16 -13 -27 -4 -12 10 -9 18 18 45 25 26 36 31 46 23 7 -6 10 -15 7
-20z"/>
<path d="M5466 1211 c-16 -17 -23 -31 -18 -35 6 -4 13 -2 17 4 3 5 3 10 -1 10
-4 0 1 9 11 20 10 11 22 17 28 13 6 -3 7 -1 3 5 -9 16 -8 16 -40 -17z"/>
<path d="M5282 1037 c-34 -35 -60 -66 -56 -70 9 -9 -16 -38 -27 -31 -5 3 -6
11 -3 17 4 7 -9 -3 -28 -21 -19 -18 -38 -29 -43 -25 -5 5 -4 1 3 -8 6 -9 9
-18 6 -21 -2 -3 2 -8 10 -11 9 -4 21 4 31 19 9 14 20 22 24 19 10 -6 33 19 25
28 -7 7 31 28 40 22 3 -3 4 -2 1 2 -3 3 0 12 6 20 6 7 8 13 4 13 -5 0 0 9 10
20 12 13 22 17 29 10 8 -6 22 -1 41 14 l29 23 -22 12 c-13 7 -20 16 -17 22 13
20 -3 6 -63 -54z m64 2 c-13 -11 -25 -14 -32 -8 -7 5 -19 0 -34 -16 -13 -14
-20 -25 -16 -25 5 0 3 -7 -4 -15 -7 -8 -17 -12 -22 -9 -6 4 14 30 42 59 44 45
56 52 70 42 17 -10 17 -12 -4 -28z m-131 -111 c5 4 5 1 1 -6 -4 -7 -11 -10
-16 -7 -5 3 -17 -6 -28 -20 -14 -17 -22 -21 -25 -13 -7 20 34 60 48 48 7 -5
16 -6 20 -2z"/>
<path d="M5321 1056 c-7 -8 -8 -17 -3 -20 6 -3 15 1 21 8 7 8 8 17 3 20 -6 3
-15 -1 -21 -8z"/>
<path d="M5164 908 l-19 -23 23 19 c12 11 22 21 22 23 0 8 -8 2 -26 -19z"/>
<path d="M5126 852 c-3 -5 1 -9 9 -9 8 0 12 4 9 9 -3 4 -7 8 -9 8 -2 0 -6 -4
-9 -8z"/>
<path d="M5056 807 c3 -10 9 -15 12 -12 3 3 0 11 -7 18 -10 9 -11 8 -5 -6z"/>
<path d="M4984 758 l-19 -23 23 19 c21 18 27 26 19 26 -2 0 -12 -10 -23 -22z"/>
<path d="M4929 733 c-13 -16 -12 -17 4 -4 9 7 17 15 17 17 0 8 -8 3 -21 -13z"/>
<path d="M4809 678 c-10 -33 2 -61 16 -38 4 6 12 7 18 3 7 -3 3 3 -7 15 -18
21 -25 26 -27 20z m16 -17 c3 -5 2 -12 -3 -15 -5 -3 -9 1 -9 9 0 17 3 19 12 6z"/>
<path d="M4737 609 c-8 -11 -23 -22 -33 -24 -11 -2 -20 -4 -21 -5 -2 -2 -6 -3
-10 -4 -5 -1 -19 -8 -33 -16 -14 -8 -29 -15 -35 -15 -5 -1 -8 -7 -6 -15 2 -8
4 -20 4 -27 0 -9 6 -9 21 -1 31 16 34 21 9 14 -32 -10 -29 9 4 31 32 21 53 25
53 10 0 -6 6 -2 14 9 8 10 18 16 22 11 4 -4 2 -7 -4 -7 -7 0 -12 -5 -12 -12 0
-6 12 -1 26 13 14 13 28 22 31 19 4 -3 7 3 9 12 1 11 -3 15 -14 11 -10 -4 -13
-2 -8 5 13 21 -2 13 -17 -9z m4 -22 c-10 -9 -11 -8 -5 6 3 10 9 15 12 12 3 -3
0 -11 -7 -18z"/>
<path d="M4546 512 c-3 -5 1 -9 9 -9 8 0 12 4 9 9 -3 4 -7 8 -9 8 -2 0 -6 -4
-9 -8z"/>
<path d="M4391 447 c2 -1 13 -9 24 -17 19 -14 19 -14 6 3 -7 9 -18 17 -24 17
-6 0 -8 -1 -6 -3z"/>
<path d="M4265 379 c-21 -16 -42 -26 -48 -22 -6 3 -7 1 -3 -6 8 -12 19 -8 48
17 9 7 21 11 26 8 5 -3 17 3 26 13 26 29 -5 22 -49 -10z"/>
<path d="M4125 353 c3 -3 -1 -13 -8 -21 -8 -11 -8 -14 0 -9 6 4 14 1 17 -5 2
-7 4 -3 2 9 -1 12 -5 25 -9 28 -4 3 -5 2 -2 -2z"/>
<path d="M4074 308 l-19 -23 23 19 c12 11 22 21 22 23 0 8 -8 2 -26 -19z"/>
<path d="M4014 298 c-4 -7 -4 -10 1 -6 4 4 15 2 24 -5 14 -11 14 -10 2 6 -16
20 -18 21 -27 5z"/>
<path d="M3601 227 c-8 -10 -7 -14 2 -14 8 0 14 6 14 14 0 7 -1 13 -2 13 -2 0
-8 -6 -14 -13z"/>
<path d="M6061 3887 c0 -11 8 -30 19 -44 11 -14 20 -21 20 -16 0 6 -6 16 -14
23 -8 6 -17 21 -19 33 -3 17 -5 18 -6 4z"/>
<path d="M6086 3741 c-3 -4 0 -13 6 -21 8 -12 9 -11 4 4 -5 13 -2 17 9 13 8
-4 16 -3 19 1 3 4 -4 8 -14 9 -11 1 -22 -2 -24 -6z"/>
<path d="M6118 3623 c7 -3 16 -2 19 1 4 3 -2 6 -13 5 -11 0 -14 -3 -6 -6z"/>
<path d="M6120 3580 c-8 -5 -10 -10 -5 -10 6 0 17 5 25 10 8 5 11 10 5 10 -5
0 -17 -5 -25 -10z"/>
<path d="M6180 3318 c0 -4 4 -8 9 -8 6 0 12 4 15 8 3 5 -1 9 -9 9 -8 0 -15 -4
-15 -9z"/>
<path d="M6195 3120 c3 -5 8 -10 11 -10 2 0 4 5 4 10 0 6 -5 10 -11 10 -5 0
-7 -4 -4 -10z"/>
<path d="M6190 2739 c0 -5 5 -7 10 -4 6 3 10 8 10 11 0 2 -4 4 -10 4 -5 0 -10
-5 -10 -11z"/>
<path d="M5990 1949 c0 -5 5 -7 10 -4 6 3 10 8 10 11 0 2 -4 4 -10 4 -5 0 -10
-5 -10 -11z"/>
<path d="M5848 1918 c-3 -7 -6 -17 -7 -23 -2 -5 -9 -17 -17 -26 -8 -9 -11 -19
-8 -22 4 -4 2 -13 -4 -20 -9 -10 -8 -14 3 -14 8 0 13 3 10 5 -3 3 2 16 10 29
9 13 12 23 9 23 -4 0 0 8 9 18 10 10 13 23 8 31 -7 10 -9 10 -13 -1z"/>
<path d="M5970 1926 c0 -2 7 -7 16 -10 8 -3 12 -2 9 4 -6 10 -25 14 -25 6z"/>
<path d="M5950 1859 c0 -5 5 -7 10 -4 6 3 10 8 10 11 0 2 -4 4 -10 4 -5 0 -10
-5 -10 -11z"/>
<path d="M5912 1798 c2 -6 10 -13 16 -14 7 -1 8 0 2 3 -5 2 -8 9 -4 14 3 5 0
9 -6 9 -7 0 -10 -5 -8 -12z"/>
<path d="M5790 1761 c0 -7 -5 -9 -12 -5 -6 4 -8 3 -4 -4 3 -6 -2 -15 -11 -21
-10 -6 -13 -11 -7 -11 15 0 49 39 41 47 -4 3 -7 1 -7 -6z"/>
<path d="M5674 1609 c-4 -8 -3 -9 4 -5 19 11 14 -5 -5 -21 -16 -13 -16 -13 5
-3 12 6 22 15 22 20 0 15 -18 21 -26 9z"/>
<path d="M5790 1531 c0 -6 4 -13 10 -16 6 -3 7 1 4 9 -7 18 -14 21 -14 7z"/>
<path d="M5610 1505 c-13 -14 -20 -25 -15 -25 4 0 -4 -9 -19 -21 -14 -11 -24
-24 -21 -29 3 -5 1 -11 -5 -15 -6 -4 -8 -11 -4 -16 3 -5 10 -7 15 -3 5 3 7 9
4 14 -3 5 -1 11 5 15 6 4 8 10 5 15 -3 4 2 10 10 13 9 4 12 1 8 -9 -3 -7 0
-14 7 -14 6 0 9 4 6 9 -3 5 0 14 8 20 8 7 13 20 11 29 -1 9 2 23 8 30 17 22 1
13 -23 -13z m6 -20 c-1 -8 -5 -17 -8 -21 -5 -4 -4 16 1 34 3 9 9 -1 7 -13z"/>
<path d="M5750 1479 c0 -5 5 -7 10 -4 6 3 10 8 10 11 0 2 -4 4 -10 4 -5 0 -10
-5 -10 -11z"/>
<path d="M5520 1370 c-9 -6 -10 -10 -3 -10 6 0 15 5 18 10 8 12 4 12 -15 0z"/>
<path d="M5483 1337 c-21 -27 -22 -34 -1 -32 12 1 22 9 24 18 3 22 -11 30 -23
14z m14 -12 c0 -8 -4 -12 -9 -9 -5 3 -6 10 -3 15 9 13 12 11 12 -6z"/>
<path d="M5421 1257 c-8 -10 -7 -14 2 -14 8 0 14 6 14 14 0 7 -1 13 -2 13 -2
0 -8 -6 -14 -13z"/>
<path d="M5348 1180 c-15 -16 -35 -41 -44 -55 -9 -14 -20 -23 -24 -20 -5 3
-34 -24 -65 -60 -32 -36 -61 -63 -65 -60 -4 2 -17 -6 -29 -19 -13 -13 -19 -26
-14 -29 10 -6 98 74 113 103 6 12 18 17 31 15 12 -3 19 -2 15 2 -9 10 25 44
37 36 5 -3 7 -2 4 3 -8 13 9 39 25 39 7 0 13 9 13 20 0 12 7 20 17 20 18 0 22
7 16 25 -2 5 -15 -4 -30 -20z m-68 -83 c0 -2 -10 -12 -22 -23 l-23 -19 19 23
c18 21 26 27 26 19z m-130 -120 c0 -2 -10 -12 -22 -23 l-23 -19 19 23 c18 21
26 27 26 19z"/>
<path d="M5455 1089 c-4 -6 -5 -12 -2 -15 2 -3 7 2 10 11 7 17 1 20 -8 4z"/>
<path d="M5033 883 c-8 -13 -19 -21 -23 -18 -5 3 -11 1 -14 -4 -11 -16 11 -22
24 -6 7 8 16 12 21 10 4 -3 13 4 19 15 7 13 17 19 26 16 8 -3 12 -2 9 3 -10
17 -47 7 -62 -16z m20 2 c-3 -9 -8 -14 -10 -11 -3 3 -2 9 2 15 9 16 15 13 8
-4z"/>
<path d="M5250 891 c0 -6 4 -13 10 -16 6 -3 7 1 4 9 -7 18 -14 21 -14 7z"/>
<path d="M4962 836 c4 -5 3 -15 -4 -23 -16 -19 -1 -30 18 -12 13 14 13 17 -3
30 -10 7 -15 9 -11 5z"/>
<path d="M4927 795 c-4 -8 -3 -16 1 -19 4 -3 9 4 9 15 2 23 -3 25 -10 4z"/>
<path d="M5110 781 c0 -6 4 -12 8 -15 5 -3 9 1 9 9 0 8 -4 15 -9 15 -4 0 -8
-4 -8 -9z"/>
<path d="M4886 771 c-4 -5 -2 -12 3 -15 5 -4 12 -2 15 3 4 5 2 12 -3 15 -5 4
-12 2 -15 -3z"/>
<path d="M4855 739 c-4 -6 -13 -8 -21 -5 -8 3 -11 0 -7 -10 4 -10 9 -12 18 -4
6 5 14 8 17 5 2 -3 5 2 5 10 0 18 -3 19 -12 4z"/>
<path d="M4779 703 c-13 -16 -12 -17 4 -4 16 13 21 21 13 21 -2 0 -10 -8 -17
-17z"/>
<path d="M4689 644 c-12 -13 -25 -21 -29 -19 -4 2 -7 -3 -7 -11 0 -11 5 -10
22 6 12 11 24 18 27 15 2 -3 12 3 21 13 26 29 -7 25 -34 -4z"/>
<path d="M4536 563 c-4 -5 -11 -8 -14 -8 -4 0 -23 -11 -42 -25 -19 -14 -36
-24 -37 -22 -2 1 -3 0 -3 -3 0 -3 0 -8 0 -11 0 -4 6 -1 14 5 10 8 20 6 40 -10
31 -24 49 -17 23 8 -16 16 -15 19 10 45 15 15 24 28 22 28 -3 0 -9 -3 -13 -7z
m-29 -30 c-16 -16 -16 -18 1 -37 17 -20 17 -20 -9 -1 l-26 19 21 18 c27 22 35
23 13 1z"/>
<path d="M4302 448 c-7 -7 -12 -8 -12 -4 0 5 -7 3 -15 -4 -8 -7 -15 -9 -15 -5
0 5 -9 0 -19 -9 -11 -10 -24 -15 -29 -12 -6 3 -18 -7 -28 -22 -15 -24 -15 -25
-1 -13 9 7 17 10 17 6 0 -4 6 -2 13 4 8 6 17 8 20 4 4 -3 16 6 27 20 13 16 28
24 40 22 11 -2 22 0 25 5 9 14 -11 20 -23 8z m-42 -22 c0 -2 -8 -10 -17 -17
-16 -13 -17 -12 -4 4 13 16 21 21 21 13z"/>
<path d="M4069 361 c-20 -17 -21 -19 -5 -17 10 1 22 10 28 19 12 22 6 21 -23
-2z"/>
<path d="M3885 310 c-4 -6 -11 -7 -17 -4 -7 4 -8 2 -4 -5 6 -9 11 -9 22 0 14
11 18 19 10 19 -3 0 -8 -5 -11 -10z"/>
<path d="M3800 290 c-9 -6 -10 -10 -3 -10 6 0 15 5 18 10 8 12 4 12 -15 0z"/>
<path d="M3746 273 c-4 -11 -1 -11 14 -3 24 13 25 17 5 17 -8 0 -16 -6 -19
-14z"/>
<path d="M3564 248 c-4 -5 -3 -12 0 -15 3 -4 6 -1 6 6 0 7 4 10 9 6 5 -3 12
-2 15 3 3 5 -2 9 -10 9 -8 0 -17 -4 -20 -9z"/>
<path d="M2900 230 c-9 -6 -10 -10 -3 -10 6 0 15 5 18 10 8 12 4 12 -15 0z"/>
<path d="M2937 233 c-4 -3 -7 -11 -7 -17 0 -6 5 -4 10 4 7 12 10 12 10 1 0 -7
6 -11 14 -8 7 3 20 0 27 -6 10 -10 10 -8 0 6 -8 9 -16 15 -19 12 -3 -3 -10 0
-17 5 -7 5 -15 7 -18 3z"/>
<path d="M3367 223 c-9 -10 -17 -13 -17 -7 0 5 -8 10 -19 11 -14 1 -18 -5 -17
-26 1 -15 6 -28 13 -28 8 0 9 8 3 23 -7 18 -6 22 5 18 8 -3 13 -11 12 -16 -1
-6 5 -13 13 -15 13 -4 13 -3 0 6 -8 6 -10 11 -5 11 6 0 16 9 23 20 15 25 12
25 -11 3z"/>
<path d="M3016 214 c-3 -9 1 -11 11 -7 13 5 15 2 10 -11 -4 -9 -3 -15 2 -11
14 8 9 42 -6 42 -6 0 -14 -6 -17 -13z"/>
<path d="M3069 229 c0 -2 -2 -11 -4 -20 -1 -9 3 -16 10 -16 7 0 12 6 11 13 -2
13 -15 31 -17 23z"/>
</g>
</svg>
